<?xml version="1.0"?><svg width="1280" height="960" xmlns="http://www.w3.org/2000/svg">
 <title>olaaa</title>
 <metadata id="metadata4">image/svg+xml</metadata>
 <g>
  <title>Layer 1</title>
  <g id="layer1">
   <g id="g4243">
    <path d="m338.706757,220.890015c143.293243,122.952972 211.11026,355.461975 233.744232,573.625977c3.108032,18.546021 5.560974,36.984009 7.247986,55.223022l22.509033,-41.205017c-27.963013,-225.747009 -118.193024,-480.496002 -271.708008,-599.98999l8.206726,12.346008l0.000031,0z" stroke-width="1px" stroke="#3f7f00" fill="#3f7f00" id="path4224"/>
    <path d="m520.315002,18.232002c11.343994,0.417 22.795959,-3.293999 31.739014,-10.284599c8.942993,-6.991104 15.309021,-17.208 17.643005,-28.3172c2.333008,-11.109203 0.616943,-23.023804 -4.757019,-33.022602c-5.375,-9.998798 -14.36499,-18.003597 -24.91803,-22.186199c-9.425964,-3.735901 -19.973999,-4.428734 -29.895966,-2.338699c-9.92099,2.089996 -19.20401,6.911697 -26.883026,13.5327c-15.358978,13.241898 -23.886963,33.272198 -25.802979,53.460594c-1.916016,20.1884 2.304993,40.562004 9.178986,59.640007c6.875,19.078995 16.359009,37.08699 25.399994,55.238998c109.471008,219.802994 156.233032,470.409012 133.39801,714.899979l-44.804993,35.583008c50.338989,-248.515991 17.656006,-513.11499 -91.640991,-741.911987c-9.551025,-19.994003 -19.692017,-39.779999 -27.067017,-60.673996c-7.373993,-20.895004 -11.94101,-43.144608 -9.893005,-65.207703c2.049011,-22.063004 11.222015,-43.9785 27.869019,-58.602402c8.323975,-7.311943 18.403992,-12.688988 29.216003,-15.106972c10.812012,-2.417976 22.34198,-1.821381 32.701965,2.10363c11.775024,4.460968 21.860046,13.237045 27.906006,24.282841c6.045044,11.045799 8,24.271099 5.411011,36.5937c-2.589966,12.322601 -9.703979,23.641899 -19.68396,31.319801c-9.980042,7.678101 -22.744995,11.6521 -35.320068,10.995102" stroke-width="1px" stroke="#3f7f00" fill="#3f7f00" id="path40871"/>
    <path d="m571.239014,491.01001c1.838989,8.234985 4.862976,17.484985 8.89502,26.560974c5.810974,13.082031 13.714966,25.799011 23.177002,34.585999l-1.291992,24.876038c-4.559082,-18.899048 -22.800049,-52.249023 -43.001038,-40.504028c-22.820007,-5.362 -47.302002,-7.890991 -66.878998,-22.002014c-9.723022,-6.906982 -17.961029,-15.796997 -25.738007,-24.782959c-16.330017,-22.259033 -22.985992,-51.137024 -18.242004,-78.304016c52.734009,52.513 102.372009,3.951996 123.080017,79.570007z" stroke="#3f7f00" fill="#3f7f00" id="path41404"/>
    <path d="m504.040985,195.789001c3.841034,17.199005 25.732025,17.277008 39.443024,30.01001l-1.10498,21.279999c-3.900024,-16.167999 -21.623047,-31.389008 -36.788025,-34.650024c-19.522003,-4.586975 -40.466003,-6.750977 -57.213013,-18.822998c-8.317993,-5.908997 -15.365997,-13.513977 -22.018799,-21.201996c-13.970184,-19.041992 -19.66449,-43.746994 -15.606384,-66.987991c45.11319,44.923996 99.012177,20.535995 93.288177,90.373001z" stroke="#3f7f00" fill="#3f7f00" id="path41406"/>
    <path d="m532.738037,8.035599c0,6.142403 -4.978027,11.121399 -11.119019,11.121399c-6.140015,0 -11.118011,-4.978996 -11.118011,-11.121399c0,-6.142296 4.977997,-11.121597 11.118011,-11.121597c6.140991,0 11.119019,4.979301 11.119019,11.121597z" stroke="#3f7f00" fill="#3f7f00" id="path41414"/>
    <g id="g4258">
     <path d="m687.536011,370.014008c-11.656006,-2.130005 -23.674011,-2.087006 -35.135986,0.326996c0.809937,1.382996 1.576965,2.807007 2.300964,4.261993c27.829041,-4.117004 57.720032,6.582001 76.772034,27.5c11.345947,7.028015 2.015991,16.617004 0.899963,26.029022c-3.222961,12.565979 10.262024,19.473999 20.620056,21.005005c28.276978,5.667969 57.553955,3.987 85.588989,11.348999c15.838989,2.724976 32.175964,12.55896 35.995972,29.175964c4.016968,10.062012 -3.619995,20.829041 0.252991,30.333984c8.315979,10.153015 4.330994,-11.738953 5.052002,-15.397949c-1.635986,-25.984009 -10.302979,-52.045044 -26.651978,-72.536011c-17.500061,-22.314026 -43.784973,-41.891022 -73.475037,-40.111023c-12.878967,-0.302979 -23.211975,7.765015 -32.656982,15.459015c-4.646973,-5.257996 -9.05603,-10.757996 -14.335999,-15.412994c-12.444031,-11.374023 -28.455017,-18.919006 -45.22699,-21.983002z" stroke="#3f7f00" fill="#3f7f00" id="path41408"/>
     <path d="m737.240967,114.684998c-100.471924,173.766998 -86.622925,430.838013 -32.491943,657.61499c3.41394,19.694031 7.447021,39.049988 12.178955,57.937012l-37.098999,-33.401001c-51.455994,-236.257019 -50.647949,-523.526001 61.298035,-697.423004l-3.886047,15.272003z" stroke-width="1px" stroke="#3f7f00" fill="#3f7f00" id="path41540"/>
     <path d="m696.64801,180.179993c-35.481018,-39.119995 -115.348999,18.891998 -104.954041,98.463013c-4.402954,5.143982 11.560059,1.85199 1.874023,-12.128998c-9.573975,-73.286011 145.049011,-24.078003 112.224976,-81.364014c-0.161011,-0.281982 -2.92395,-1.311981 -3.094971,-1.597992c-0.539001,-0.90799 0.10199,-1.011993 0.839966,-2.057007m0,0c6.738037,-11.360992 16.68103,-20.806992 28.381042,-26.96199c11.700012,-6.154999 25.122009,-9 38.311951,-8.122009c12.634033,0.84201 25.190063,5.190002 34.892029,13.305008c9.702026,8.113983 16.318054,20.139984 16.813049,32.770996c0.282959,7.220001 -1.413025,14.509003 -4.851074,20.871002c-3.437988,6.362 -8.607971,11.781006 -14.804932,15.522003c-6.406006,3.868988 -14.098022,5.938995 -21.475037,4.684998c-3.687988,-0.627991 -7.247986,-2.083008 -10.231018,-4.335999c-2.981934,-2.253998 -5.370972,-5.313995 -6.695984,-8.806c-2.143982,-5.649017 -1.307983,-12.335999 2.162048,-17.291016c3.469971,-4.955994 9.474976,-8.037994 14.587952,-8.194c-7.382019,-0.293976 -13.772034,2.985016 -17.465027,8.257019c-3.692993,5.27298 -4.583008,12.389008 -2.302002,18.399994c1.411011,3.71701 3.953003,6.972992 7.127075,9.371002c3.17395,2.397003 6.962952,3.945984 10.887939,4.613007c7.850037,1.333984 16.036011,-0.869995 22.853027,-4.987c6.593018,-3.981018 12.094971,-9.746002 15.755005,-16.514008c3.658997,-6.769012 5.464966,-14.524994 5.164001,-22.207001c-0.525024,-13.44101 -7.567017,-26.238007 -17.893005,-34.869995c-10.325012,-8.633011 -23.686035,-13.257004 -37.130005,-14.151001c-14.036011,-0.932999 -28.31897,2.093994 -40.77002,8.64299c-12.451965,6.549011 -23.033936,16.598007 -30.20697,28.686996" stroke-width="1px" stroke="#3f7f00" fill="#3f7f00" id="path4226"/>
     <path d="m771.89502,519.067993c-27.218018,67.130981 -107.067993,146.18103 -63.483032,285.119995l9.953003,26.432983c12.682983,0 12.155029,-7.927979 12.155029,-7.927979c-60.857056,-148.348999 45.105957,-232.787964 41.375,-303.625z" stroke-width="1px" stroke="#3f7f00" fill="#3f7f00" id="path4230"/>
     <path d="m721.390991,545.679993c-15.337036,48.424988 -66.599976,108.033997 -28.937012,202.85199l8.320007,17.949036c8.809998,-0.686035 8.022034,-6.202026 8.022034,-6.202026c-50.163025,-100.466003 18.953979,-165.255981 12.594971,-214.598999z" stroke-width="1px" stroke="#3f7f00" fill="#3f7f00" id="path4235"/>
    </g>
    <path d="m449.51001,566.033997c44.127991,57.447021 142.158997,112.353027 137.187012,257.882019l-2.546021,28.130005c-12.224976,3.380981 -13.828979,-4.401001 -13.828979,-4.401001c19.110962,-159.204041 -105.526031,-212.342041 -120.812012,-281.611023z" stroke-width="1px" stroke="#3f7f00" fill="#3f7f00" id="path4237"/>
   </g>
  </g>
 </g>
</svg>