<?xml version="1.0"?><svg width="717.82111" height="1032.859" xmlns="http://www.w3.org/2000/svg" xmlns:xlink="http://www.w3.org/1999/xlink">
 <title>brown branch leaves</title>
 <defs>
  <linearGradient x1="288.57141" y1="32.362179" x2="358.12326" y2="605.42957" id="linearGradient3284-354-231" xlink:href="#linearGradient3264-145-450" gradientUnits="userSpaceOnUse"/>
  <linearGradient id="linearGradient3264-145-450">
   <stop id="stop4750" offset="0" stop-color="#6bbab6"/>
   <stop id="stop4752" offset="1" stop-color="#cfcfcf"/>
  </linearGradient>
  <linearGradient x1="282.84271" y1="648.30115" x2="242.38866" y2="32.10812" id="linearGradient3002-349-87" xlink:href="#linearGradient2996-674-27" gradientUnits="userSpaceOnUse"/>
  <linearGradient id="linearGradient2996-674-27">
   <stop id="stop4756" offset="0" stop-color="#cfcfcf"/>
   <stop id="stop4758" offset="1" stop-opacity="0.4" stop-color="#cfcfcf"/>
  </linearGradient>
  <linearGradient x1="343.53775" y1="949.63672" x2="350.58408" y2="495.21933" id="linearGradient3279-946-905" xlink:href="#linearGradient3273-97-114" gradientUnits="userSpaceOnUse" gradientTransform="matrix(0.977519,-0.2108473,0.2108473,0.977519,-4.3436519,216.05375)"/>
  <linearGradient id="linearGradient3273-97-114">
   <stop id="stop4762" offset="0" stop-color="#0c0c0c"/>
   <stop id="stop4764" offset="1" stop-color="#a6a6a6"/>
  </linearGradient>
  <linearGradient x1="646.55713" y1="1011.7061" x2="588.94861" y2="705.40942" id="linearGradient3894-837-942" xlink:href="#linearGradient3888-174-937" gradientUnits="userSpaceOnUse" gradientTransform="matrix(1,0,0,1.556701,0,-603.84641)"/>
  <linearGradient id="linearGradient3888-174-937">
   <stop id="stop4768" offset="0" stop-color="#0c0c0c"/>
   <stop id="stop4770" offset="1" stop-opacity="0" stop-color="#0c0c0c"/>
  </linearGradient>
  <linearGradient x1="288.57141" y1="32.362179" x2="358.12326" y2="605.42957" id="linearGradient3284-354-231-832" xlink:href="#linearGradient3264-145-450-268" gradientUnits="userSpaceOnUse"/>
  <linearGradient id="linearGradient3264-145-450-268">
   <stop id="stop15330" offset="0" stop-color="#60a8a4"/>
   <stop id="stop15332" offset="1" stop-color="#bababa"/>
  </linearGradient>
  <linearGradient x1="282.84271" y1="648.30115" x2="242.38866" y2="32.10812" id="linearGradient3002-349-87-941" xlink:href="#linearGradient2996-674-27-15" gradientUnits="userSpaceOnUse"/>
  <linearGradient id="linearGradient2996-674-27-15">
   <stop id="stop15336" offset="0" stop-color="#bababa"/>
   <stop id="stop15338" offset="1" stop-opacity="0.4" stop-color="#bababa"/>
  </linearGradient>
  <linearGradient x1="343.53775" y1="949.63672" x2="350.58408" y2="495.21933" id="linearGradient3279-946-905-908" xlink:href="#linearGradient3273-97-114-855" gradientUnits="userSpaceOnUse" gradientTransform="matrix(0.977519,-0.2108473,0.2108473,0.977519,-4.3436519,216.05375)"/>
  <linearGradient id="linearGradient3273-97-114-855">
   <stop id="stop15342" offset="0" stop-color="#0c0c0c"/>
   <stop id="stop15344" offset="1" stop-color="#959595"/>
  </linearGradient>
  <linearGradient x1="646.55713" y1="1011.7061" x2="588.94861" y2="705.40942" id="linearGradient3894-837-942-214" xlink:href="#linearGradient3888-174-937-467" gradientUnits="userSpaceOnUse" gradientTransform="matrix(1,0,0,1.556701,0,-603.84641)"/>
  <linearGradient id="linearGradient3888-174-937-467">
   <stop id="stop15348" offset="0" stop-color="#0c0c0c"/>
   <stop id="stop15350" offset="1" stop-opacity="0" stop-color="#0c0c0c"/>
  </linearGradient>
  <linearGradient x1="288.57141" y1="32.362179" x2="358.12326" y2="605.42957" id="linearGradient3284-354-231-832-13" xlink:href="#linearGradient3264-145-450-268-642" gradientUnits="userSpaceOnUse"/>
  <linearGradient id="linearGradient3264-145-450-268-642">
   <stop id="stop15960" offset="0" stop-color="#6bbbb6"/>
   <stop id="stop15962" offset="1" stop-color="#cfcfcf"/>
  </linearGradient>
  <linearGradient x1="282.84271" y1="648.30115" x2="242.38866" y2="32.10812" id="linearGradient3002-349-87-941-998" xlink:href="#linearGradient2996-674-27-15-9" gradientUnits="userSpaceOnUse"/>
  <linearGradient id="linearGradient2996-674-27-15-9">
   <stop id="stop15966" offset="0" stop-color="#cfcfcf"/>
   <stop id="stop15968" offset="1" stop-opacity="0.4" stop-color="#cfcfcf"/>
  </linearGradient>
  <linearGradient x1="343.53775" y1="949.63672" x2="350.58408" y2="495.21933" id="linearGradient3279-946-905-908-105" xlink:href="#linearGradient3273-97-114-855-81" gradientUnits="userSpaceOnUse" gradientTransform="matrix(0.977519,-0.2108473,0.2108473,0.977519,-4.3436519,216.05375)"/>
  <linearGradient id="linearGradient3273-97-114-855-81">
   <stop id="stop15972" offset="0" stop-color="#0d0d0d"/>
   <stop id="stop15974" offset="1" stop-color="#a6a6a6"/>
  </linearGradient>
  <linearGradient x1="646.55713" y1="1011.7061" x2="588.94861" y2="705.40942" id="linearGradient3894-837-942-214-747" xlink:href="#linearGradient3888-174-937-467-178" gradientUnits="userSpaceOnUse" gradientTransform="matrix(1,0,0,1.556701,0,-603.84641)"/>
  <linearGradient id="linearGradient3888-174-937-467-178">
   <stop id="stop15978" offset="0" stop-color="#0d0d0d"/>
   <stop id="stop15980" offset="1" stop-opacity="0" stop-color="#0d0d0d"/>
  </linearGradient>
  <linearGradient x1="288.57141" y1="32.362179" x2="358.12326" y2="605.42957" id="linearGradient3284-354-231-832-13-48" xlink:href="#linearGradient3264-145-450-268-642-565" gradientUnits="userSpaceOnUse"/>
  <linearGradient id="linearGradient3264-145-450-268-642-565">
   <stop id="stop16622" offset="0" stop-color="#77d0ca"/>
   <stop id="stop16624" offset="1" stop-color="#e6e6e6"/>
  </linearGradient>
  <linearGradient x1="282.84271" y1="648.30115" x2="242.38866" y2="32.10812" id="linearGradient3002-349-87-941-998-339" xlink:href="#linearGradient2996-674-27-15-9-796" gradientUnits="userSpaceOnUse"/>
  <linearGradient id="linearGradient2996-674-27-15-9-796">
   <stop id="stop16628" offset="0" stop-color="#e6e6e6"/>
   <stop id="stop16630" offset="1" stop-opacity="0.4" stop-color="#e6e6e6"/>
  </linearGradient>
  <linearGradient x1="343.53775" y1="949.63672" x2="350.58408" y2="495.21933" id="linearGradient3279-946-905-908-105-769" xlink:href="#linearGradient3273-97-114-855-81-316" gradientUnits="userSpaceOnUse" gradientTransform="matrix(0.977519,-0.2108473,0.2108473,0.977519,-4.3436519,216.05375)"/>
  <linearGradient id="linearGradient3273-97-114-855-81-316">
   <stop id="stop16634" offset="0" stop-color="#0e0e0e"/>
   <stop id="stop16636" offset="1" stop-color="#b8b8b8"/>
  </linearGradient>
  <linearGradient x1="646.55713" y1="1011.7061" x2="588.94861" y2="705.40942" id="linearGradient3894-837-942-214-747-718" xlink:href="#linearGradient3888-174-937-467-178-480" gradientUnits="userSpaceOnUse" gradientTransform="matrix(1,0,0,1.556701,0,-603.84641)"/>
  <linearGradient id="linearGradient3888-174-937-467-178-480">
   <stop id="stop16640" offset="0" stop-color="#0e0e0e"/>
   <stop id="stop16642" offset="1" stop-opacity="0" stop-color="#0e0e0e"/>
  </linearGradient>
 </defs>
 <g>
  <title>Layer 1</title>
  <g id="layer3" display="inline" opacity="0.704762"/>
  <g id="layer2" display="inline"/>
  <g id="layer1" display="inline">
   <path d="m458.522522,79.440933c4.225098,-0.558586 7.331299,0.470757 9.945435,2.265907c0,0 0,0.000023 0,0.000023c1.439941,0.874184 2.634766,2.06675 3.695374,3.379715c1.060547,1.312988 1.985657,2.750053 2.753418,4.203171c1.535522,2.906204 2.402649,5.923927 1.884094,8.280098c-0.311768,1.416504 0.248718,2.368355 0.741211,2.907089c1.184326,0.538551 2.67926,0.892052 4.44696,0.970543c1.7677,0.078499 3.810181,-0.122246 6.054443,-0.700386c2.426971,-0.634331 5.151581,-2.10302 7.823181,-4.69474c0,0 0,0 0,-0.000015c2.530762,-2.655365 4.238037,-6.062225 4.906403,-9.750275c0.118286,-0.549187 0.219727,-1.095123 0.305084,-1.635361c0.528229,-9.535309 -2.78714,-18.912132 -9.564331,-26.142754c0,0 0,0 0,0c-9.592957,-9.104691 -21.637024,-12.864418 -32.531677,-12.448608c0,0 0,0 0,0c-13.300842,0.085098 -26.013733,5.502861 -35.266479,15.046268c0,0 0,0 0,0.000011c-7.929443,7.961838 -13.217041,18.926506 -13.986511,31.192703c-0.012268,0.512276 -0.017273,1.022873 -0.015076,1.531715c0.03186,6.329865 1.145935,12.520775 3.229004,18.338791c2.083069,5.818008 5.135315,11.263092 8.979675,16.061844c3.547119,4.700882 7.894775,9.009369 12.972412,12.62294c5.077698,3.613556 10.885437,6.532074 17.322021,8.411057c6.615967,1.766495 13.451111,2.379532 20.218018,1.861526c6.766968,-0.518005 13.465393,-2.166992 19.762848,-4.895981c11.956879,-5.108887 22.518524,-13.815033 29.769196,-25.246559c7.28241,-11.646889 11.009155,-25.332748 10.747742,-39.125496c-0.213074,-13.354073 -4.130127,-26.751392 -11.674927,-38.216431c-9.66626,-14.427549 -24.186737,-25.01577 -40.421753,-30.388741c-16.001526,-5.345049 -33.547913,-5.881919 -49.834106,-1.28161c-11.944946,3.39734 -22.967163,9.58612 -32.039307,17.892409c-9.522339,8.774622 -16.765869,19.486139 -21.949646,30.83861c-6.572205,14.475311 -10.258728,29.705849 -11.941833,44.982658c-1.683105,15.27681 -1.368164,30.596214 0.076172,45.304939c2.024963,21.214874 6.250366,41.748077 12.297546,60.939667c6.047241,19.191589 13.914429,37.037292 23.071228,53.132706c0,0 0,0.000031 0,0.000031c6.641235,11.664825 13.905457,22.371307 21.229736,32.300812c2.696106,3.655518 5.390503,7.186737 7.956848,10.686493c1.773254,2.430267 3.497253,4.726471 4.756287,7.127106l-12.090942,6.388c-0.566223,-1.200684 -1.953003,-2.931915 -3.72998,-5.439026c-2.522278,-3.42691 -5.217285,-6.955566 -7.9599,-10.680389c0,0 0,-0.000031 0,-0.000031c-7.889771,-10.704315 -15.349731,-21.927521 -22.015564,-33.795807c-0.000061,0 -0.000061,0 -0.000061,-0.000031c-20.573242,-36.808273 -32.3479,-78.021881 -35.652283,-119.734512c0,-0.000015 0,-0.000031 0,-0.000031c-2.808777,-31.388466 0.02887,-65.062828 14.450256,-95.851036c5.867004,-12.357529 14.136108,-24.00164 24.948608,-33.669668c0,-0.00001 0,-0.00001 0,-0.000031c10.382629,-9.15774 22.811157,-15.826839 36.256653,-19.39361c18.172485,-4.74993 37.40332,-3.84563 54.984619,2.39557c17.605865,6.15029 33.301575,17.977709 43.881226,34.27706c8.037903,12.737579 12.156311,27.425781 12.128235,42.205902c0,0.000015 0,0.000031 0,0.000046c0.038086,14.823044 -4.148254,29.618118 -12.420837,42.427803c-7.998291,12.153191 -19.460602,21.514763 -32.77182,26.965187c-13.396027,5.594574 -28.648529,6.782776 -43.408966,2.675827c-13.633667,-4.21666 -24.793274,-12.580551 -32.46051,-23.05777c-8.144714,-10.325363 -13.096252,-23.848999 -12.696228,-38.811974c0.967529,-13.395859 6.525146,-25.192169 14.969238,-33.862923c0,-0.000008 0,-0.000008 0,-0.000031c9.902588,-10.490967 23.494202,-16.701317 38.223816,-17.20327c11.802124,-0.916397 25.243408,2.96579 36.880463,13.255981c0.283905,0.29142 0.562958,0.585869 0.837189,0.88327c2.484558,2.69458 4.434174,5.467628 5.973114,8.228218c1.538971,2.760574 2.667145,5.509918 3.480682,8.201462c1.627045,5.383102 2.017487,10.520409 1.64801,15.341133c-0.523804,5.418823 -2.448273,10.09169 -5.394043,14.021729c-3.305054,4.056801 -6.506256,6.675606 -9.447693,8.19101c-3.434113,1.817642 -6.648499,3.137451 -9.70636,4.09536c-3.057922,0.957901 -5.964233,1.547302 -8.66333,1.811752c-2.138794,0.308319 -4.342773,0.553467 -6.636475,0.735764c-3.76709,0.299423 -7.33429,0.052505 -10.490295,-0.641174c0,0 0,0 0,0c-4.201721,-0.876289 -7.638123,-2.509819 -10.254578,-4.787941c-1.308289,-1.139084 -2.41394,-2.445068 -3.280457,-3.932732c-0.866577,-1.487648 -1.494324,-3.158157 -1.797058,-5.030479c-0.319397,-1.975014 -0.403381,-4.077324 -0.150146,-6.176773c0.253174,-2.099426 0.847717,-4.196136 1.853882,-6.145836c1.006165,-1.949669 2.426941,-3.75074 4.243225,-5.254158c1.816345,-1.503426 4.025146,-2.704124 6.512756,-3.496002c1.268372,-0.401802 2.617554,-0.700089 4.036804,-0.887733c0,0 0.000061,0.000015 0.000061,0.000015z" id="path2316-4" fill-rule="evenodd" fill="#3f7f00"/>
   <path d="m236.490112,168.437698c1.573914,-1.62619 3.151855,-2.543228 4.78009,-3.04921c0,0 0,-0.000015 0,-0.000015c1.542419,-0.624252 3.080017,-0.572998 4.640869,-0.339371c1.560852,0.233627 3.152954,0.651169 4.711853,1.122467c1.558899,0.471298 3.08136,1.013702 4.382202,1.701401c1.300781,0.687683 2.372314,1.537415 2.996765,2.557465c0.644348,1.052628 1.544312,1.296646 2.171631,1.310196c1.021118,-0.415375 2.126038,-1.15274 3.236206,-2.272781c1.238098,-1.268936 2.387573,-3.225845 2.94397,-6.133148c0.38501,-2.575806 0.024475,-5.413239 -1.277283,-8.117645c0,0 0,0 0,0c-1.17395,-2.792023 -2.964417,-5.362061 -4.988831,-7.37944c-3.751648,-3.061508 -8.306824,-5.131104 -13.343201,-5.926422c0,0 0,0 0,0c-10.352295,-0.981613 -19.54718,2.436249 -26.008057,7.87558c0,0 0,0 0,0c-8.147766,6.399719 -13.405029,15.745865 -14.618713,26.048935c0,0.000015 0,0.000015 0,0.000015c-1.150513,8.672379 0.731567,17.968765 6.066406,26.076553c0,0 0,0 0,0c4.228088,5.882263 9.645142,10.338867 15.573059,13.289764c2.914734,1.448242 5.986694,2.565582 9.142212,3.323883c4.432617,1.217957 9.183594,1.808594 14.073608,1.61499c4.889954,-0.193634 9.918945,-1.171539 14.866638,-3.103455c4.95929,-2.084869 9.502014,-4.980347 13.459595,-8.546631c3.957642,-3.566284 7.330078,-7.803375 9.932983,-12.530975c4.954163,-8.875595 7.339844,-19.317657 6.355286,-29.927109c-1.070923,-10.684418 -5.289307,-20.932022 -12.068542,-29.357147c-6.501099,-8.137344 -15.319336,-14.554337 -25.524353,-18.058525c-11.012939,-3.783211 -23.297058,-4.773247 -35.210388,-1.96019c-9.155884,2.10746 -18.125305,6.806114 -24.961121,14.320061c-6.672302,7.585068 -11.162598,16.798141 -13.249695,26.486771c-2.195801,10.288757 -1.904785,20.830017 0.241821,30.794296c2.643372,12.103485 7.679504,23.357697 14.343384,33.4711c6.663818,10.113403 14.951416,19.084839 24.058411,26.659607c6.808472,5.705933 14.13678,10.775803 21.903625,14.97081c7.075439,3.815399 14.45929,6.865784 21.961426,9.229889c15.373779,4.82309 30.9198,6.889923 45.862244,8.828186c9.179077,1.199829 18.202881,2.404297 27.003113,3.82074c8.800171,1.416473 17.376709,3.045502 25.668396,5.042358c24.249756,5.831909 46.082581,14.569458 64.761719,24.146912l-5.310791,10.349152c-19.88739,-10.09494 -40.778809,-18.096436 -62.258179,-23.449219c-16.488647,-4.145172 -33.766968,-6.669983 -51.44873,-9.241486c-15.279358,-2.151794 -31.367981,-4.649841 -47.501038,-9.941193c0,-0.000031 0,-0.000031 -0.000061,-0.000031c-8.075439,-2.686096 -15.970947,-6.121704 -23.515869,-10.353699c-8.364014,-4.713623 -16.111023,-10.283691 -23.203064,-16.457108c0,0 0,0 0,0c-19.335571,-16.491852 -34.664856,-39.132843 -40.081848,-65.606354c-2.165833,-10.896667 -2.245056,-22.500061 0.390198,-33.972824c2.504272,-10.741577 7.698425,-20.922897 15.382751,-29.389114c8.151001,-8.541222 18.302185,-13.754761 28.596252,-15.863518c13.147583,-2.817551 26.504822,-1.616318 38.502197,2.769814c11.07312,4.02784 20.635315,11.113876 27.685547,20.248505c7.116699,9.127838 11.604248,20.256989 12.635071,32.148666c0.877869,11.376099 -1.720093,22.656158 -7.345642,32.417114c-5.608643,9.90509 -14.493713,17.958923 -25.659485,22.535767c0,0 -0.000061,0 -0.000061,0c-10.561157,3.951843 -21.507446,4.143707 -31.281799,1.322296c0,0 0,0 0,0c-10.015137,-2.468475 -19.596191,-8.505615 -26.6297,-18.06012c-5.903748,-8.898315 -8.155273,-18.942108 -7.067017,-28.423172c1.109924,-11.360733 6.58551,-21.798584 15.560242,-29.270096c4.718079,-4.320618 11.064209,-7.58345 18.609924,-8.953339c3.68689,-0.669342 7.375061,-0.843887 10.982361,-0.635513c2.992859,0.41246 5.676636,1.156494 8.091492,2.112244c2.414917,0.95575 4.561462,2.124237 6.480774,3.432739c3.838501,2.616959 6.778564,5.77179 9.065796,9.2547c2.340149,3.721329 3.487122,7.723419 3.54303,11.866959c-0.120117,4.181244 -0.855347,7.507904 -2.032654,9.977936c-1.25415,2.707687 -2.628784,5.089844 -4.092285,7.176086c-1.463501,2.086227 -3.020447,3.875427 -4.588501,5.320465c0,0 0,0.000015 0,0.000015c-0.599243,0.610779 -1.215027,1.218719 -1.848083,1.824478c-2.850281,2.727142 -5.902649,4.715073 -8.831787,5.936829c0,0 0,0 0,0c-3.087341,1.333282 -6.007751,1.81543 -8.730408,1.53978c-2.722717,-0.275665 -5.289307,-1.295639 -7.492065,-3.352249c-2.366272,-2.209183 -4.391479,-5.191727 -5.153992,-8.646347c-0.381226,-1.72731 -0.447937,-3.566788 -0.148071,-5.419754c0.299805,-1.852966 0.967163,-3.715469 1.968689,-5.462189c0.75531,-1.305252 1.708435,-2.557541 2.839417,-3.72612c0,0 0.000061,0 0.000061,-0.000015z" id="path3114-9" fill-rule="evenodd" fill="#3f7f00"/>
   <path d="m392.022949,395.141907c-1.090942,2.879547 -1.413025,4.988159 -1.238281,6.95459c0.174805,1.966461 0.839722,3.782104 1.818848,5.521027c0.979187,1.738892 2.284973,3.377289 3.755066,4.707123c1.470093,1.329803 3.109863,2.334198 4.624023,2.840302c1.315369,0.439606 3.381348,0.774689 5.265259,1.213989c1.88385,0.439301 3.591187,1.01474 4.001221,2.313477c0.174561,0.552704 -0.117065,1.621399 -0.801331,2.990753c-0.684265,1.369324 -1.767578,3.033722 -3.149109,4.748779c0,0 0,0 0,0c-1.253784,1.469482 -2.720764,2.93457 -4.249756,4.264923c-1.529053,1.330353 -3.118469,2.526093 -4.576843,3.531586c-1.732544,1.194519 -4.519226,3.192322 -8.737366,5.226379c-2.10907,1.017029 -4.577576,2.034485 -7.434814,2.896942c-2.857178,0.862457 -6.104675,1.570007 -9.730713,1.922272c0,0 0,0 0,0c-5.747742,0.534149 -12.326904,0.267944 -19.323242,-1.427063c-6.996338,-1.694977 -14.416565,-4.832977 -21.387756,-9.877411c-4.132568,-3.030426 -8.06842,-6.615204 -11.647827,-10.738007c-3.579407,-4.122833 -6.801514,-8.784485 -9.502808,-13.906677c-3.014221,-5.715607 -4.995361,-11.157745 -6.34021,-16.211273c-1.105042,-4.097443 -1.615051,-7.986389 -1.720825,-11.64328c-0.105774,-3.65686 0.193909,-7.083679 0.779419,-10.295898c0.58551,-3.212219 1.457764,-6.21109 2.55188,-9.027252c1.094116,-2.816162 2.410706,-5.4505 3.927979,-7.932617c3.321899,-5.245575 7.199524,-9.720856 11.807068,-13.821289c4.607605,-4.100433 9.973267,-7.835724 16.438049,-11.092682c4.805542,-2.466156 10.24176,-4.750977 16.533569,-6.599426c6.291748,-1.84848 13.450867,-3.268951 21.589233,-3.705536c5.984924,-0.328583 12.499756,-0.099487 19.466064,1.04483c6.966309,1.144287 14.393127,3.20108 21.982361,6.68335l4.77887,-10.391296c-14.797058,-6.777802 -31.03656,-9.601349 -47.058838,-8.402832c-14.724976,1.063049 -29.218567,5.448792 -42.201843,13.038544c0,0 0,0.000031 0,0.000031c-11.71814,6.632751 -22.309509,16.698975 -29.533813,30.03656c-6.878235,13.292542 -8.421753,28.797546 -3.970581,43.576233c0,0 0,0 0,0c4.963928,16.328308 14.855713,31.654114 29.470642,42.935181c12.184875,9.253998 27.408325,14.52594 43.529236,14.313995c5.910889,-0.120117 11.760986,-1.105255 17.372559,-2.920349c2.943604,-0.953979 5.576111,-2.042267 7.959656,-3.190735c2.383545,-1.148438 4.518677,-2.35791 6.465149,-3.594482c3.893066,-2.473114 7.04187,-5.03479 9.831238,-7.736267c2.711731,-2.889893 4.966431,-5.767487 7.017517,-8.960846c2.051086,-3.19339 3.902039,-6.709381 5.496338,-10.924408c1.100525,-2.909454 1.558105,-6.24527 1.337769,-9.495697c-0.220337,-3.250427 -1.112244,-6.408447 -2.480652,-9.089905c-1.368408,-2.681427 -3.20105,-4.885834 -5.223022,-6.413696c-2.022034,-1.527832 -4.22522,-2.383789 -6.417297,-2.518219c-1.876892,-0.115112 -3.982971,-0.073792 -6.11438,0.186066c-2.131409,0.259827 -4.28833,0.735291 -6.282471,1.450592c-1.994141,0.715332 -3.824585,1.666046 -5.31842,2.893341c-1.493774,1.227264 -2.640015,2.725922 -3.356812,4.626282z" id="path3133-3" fill-rule="evenodd" fill="#3f7f00"/>
   <path d="m393.95929,495.694519c0.777954,-0.152039 1.337158,-0.153137 1.81366,0.020996c0,0 0,0 0,0c0.760254,0.265686 1.398376,0.826416 1.973511,1.619751c0.575073,0.793396 1.075439,1.811829 1.455872,2.909973c0.380493,1.098145 0.635254,2.275146 0.741089,3.351379c0.105896,1.076294 0.061279,2.050415 -0.078979,2.722534c-0.143188,0.686157 -0.49469,1.654907 -0.753784,2.581604c-0.259033,0.926636 -0.417358,1.818542 -0.002014,2.360962c0.821838,1.073975 2.516174,1.397095 4.428162,1.207764c1.911926,-0.189392 3.996643,-0.900513 5.761902,-1.565613c0.247803,-0.093384 0.483704,-0.187378 0.709778,-0.282104c1.031128,-0.423706 1.864197,-0.854431 2.668335,-1.343994c0.804138,-0.489502 1.580627,-1.038452 2.467773,-1.752197c0.887146,-0.713806 1.888672,-1.590393 3.076782,-2.799866c1.188171,-1.209473 2.571899,-2.749573 4.066956,-4.88855c1.203674,-1.727539 2.460876,-3.837646 3.572327,-6.479492c1.111511,-2.641907 2.085632,-5.824097 2.489136,-9.628967c0.217102,-2.483093 0.017761,-5.096619 -0.71167,-7.718506c-0.729431,-2.621948 -1.991821,-5.256226 -3.853088,-7.654297c-1.604675,-2.066101 -3.511475,-4.004028 -5.703735,-5.764648c-2.192322,-1.760559 -4.672241,-3.343201 -7.353699,-4.70813c-4.614746,-2.404175 -9.972839,-4.46521 -16.079712,-5.773956c-6.106934,-1.308746 -12.973938,-1.86908 -20.357178,-1.083801l-0.703857,-6.681763c13.783447,-1.496429 27.910461,1.157166 40.25177,7.742035c5.3479,2.710693 10.680237,6.776184 15.075806,12.522766c0,0 0,0 0,0c4.048645,5.293762 6.151123,12.266968 5.398071,19.927734c0,0 0,0 0,0c-0.920715,6.781677 -3.615723,13.186829 -7.829407,18.592407c-2.645569,3.372437 -5.803223,6.278137 -9.346008,8.621887c-1.891235,1.248657 -3.637207,2.191589 -5.250122,2.953308c-1.637451,0.79364 -3.153748,1.385193 -4.596802,1.855042c-1.442993,0.46991 -2.814209,0.817566 -4.190918,1.077271c-1.37677,0.259644 -2.759827,0.431519 -4.240234,0.506348c-1.480469,0.074768 -3.059204,0.053772 -4.829346,-0.126282c-0.429565,-0.045227 -0.86792,-0.10199 -1.315796,-0.171997c-1.738037,-0.271729 -3.382935,-0.991516 -4.766968,-1.994812c-1.384033,-1.003357 -2.506531,-2.285767 -3.303955,-3.649231c-0.797424,-1.363525 -1.270935,-2.804504 -1.457397,-4.153992c-0.186462,-1.349487 -0.088806,-2.606384 0.18634,-3.666992c0.455322,-1.754944 1.355469,-3.047302 2.340698,-4.053284c0.985168,-1.005981 2.059814,-1.737366 3.067871,-2.342712c1.008057,-0.605408 1.954468,-1.085449 2.813354,-1.471863c0.858887,-0.386353 1.633301,-0.673584 2.365845,-0.816711l-0.000366,0z" id="path3167-8" fill-rule="evenodd" fill="#3f7f00"/>
   <path d="m432.216858,237.160751c0,0 -0.581909,0.545074 -1.604736,1.597748c-1.022827,1.052673 -2.485962,2.618896 -4.189514,4.725647c-1.703552,2.10672 -3.64624,4.758331 -5.5802,7.967651c-1.93396,3.209351 -3.856018,6.978775 -5.502441,11.256149c-1.58429,4.481262 -2.68219,9.225342 -3.19635,13.976349c-0.51416,4.751007 -0.446472,9.504822 0.129456,14.008575c0,0 0,0 0,0c0.759949,5.674469 2.051208,10.78772 3.490112,15.158783c1.438965,4.371094 3.014099,8.005859 4.361511,10.830719c1.260925,2.692963 2.303772,4.713257 2.938965,5.929688c1.253662,2.401215 3.124573,4.636871 5.381409,6.463989c2.256836,1.827148 4.897583,3.247528 7.693237,4.110138c5.59137,1.72522 11.766479,1.225983 17.009705,-2.311951c5.243591,-3.538208 7.202209,-8.187927 7.180603,-12.527649c-0.010803,-2.169891 -0.518127,-4.269592 -1.392273,-6.185028c-0.874146,-1.915436 -2.114563,-3.649048 -3.636841,-5.121735c-0.860291,-0.832306 -2.021118,-1.62384 -3.395752,-2.421448c-3.145752,-1.848877 -7.503357,-3.651215 -11.838074,-6.015533c-2.167358,-1.182159 -4.325439,-2.503723 -6.31134,-3.988586c-1.985901,-1.484863 -3.799011,-3.134521 -5.284729,-4.898987c-0.89093,-1.062317 -1.658203,-2.168457 -2.269287,-3.285248c-1.72998,-3.161041 -2.998291,-6.612274 -3.751526,-10.173157c-0.753296,-3.560883 -0.991516,-7.22998 -0.767029,-10.830872c0.348206,-4.456909 1.295959,-8.581116 2.4552,-12.146133c1.159241,-3.565033 2.527466,-6.575806 3.780151,-8.970795c1.252686,-2.394989 2.389221,-4.181183 3.170776,-5.370758c0.781616,-1.189545 1.208008,-1.789673 1.128967,-1.777557z" id="path3207-2" fill-rule="evenodd" fill="#3f7f00"/>
   <path d="m246.790833,1032.859131c5.589478,-48.584412 16.280334,-95.886841 30.383789,-141.614502c14.362,-46.607056 32.18573,-91.719727 52.351257,-135.429321c0,0 0.000061,0 0.000061,0c38.715698,-83.904785 85.814697,-162.976013 137.61145,-238.197571c0,0 0,0 0,-0.000061c40.120209,-58.271118 83.136169,-114.321991 128.699158,-167.978729c0,0 0,-0.000031 0,-0.000031c13.523926,-15.925812 27.265198,-31.631866 41.307434,-47.00824c3.79303,-4.153381 7.600769,-8.27478 11.43811,-12.346375c0,0 0.000061,-0.000031 0.000061,-0.000031c0.995483,-1.056335 1.989014,-2.104675 2.982422,-3.142609c0,0 0,0 0,-0.000031c0.25177,-0.262909 0.501465,-0.522705 0.749207,-0.779083c-0.201416,0.172516 -0.40332,0.34552 -0.605835,0.519012c22.150879,-14.249847 44.188599,-28.396667 66.113098,-42.440506c-2.235596,9.124268 -4.328125,18.11824 -6.277588,26.98201l-44.887146,31.878052l2.530579,-2.247864c-0.208557,0.239716 -0.424316,0.488953 -0.647461,0.747406c-0.892273,1.033081 -1.794739,2.088135 -2.709717,3.163086c0,0 0,0 0,0c-3.52655,4.142975 -7.040283,8.35434 -10.558228,12.618927c-13.022888,15.786804 -25.752258,31.905579 -38.286072,48.261169c0,0 0,0 0,0.000031c-42.223694,55.108093 -81.715149,112.293396 -118.159027,171.334595c-47.021759,76.243469 -88.959625,155.320862 -122.064972,237.652649c0,0.000061 0,0.000061 0,0.000061c-17.235168,42.853088 -32.05365,86.468506 -43.346985,130.770813c-7.596069,29.841064 -13.644287,59.947998 -17.624207,90.147705c-23.304932,10.963257 -46.345703,23.264771 -68.99939,37.109436z" id="path3917-5" fill-rule="evenodd" fill="#3f7f00"/>
   <path d="m420.782654,306.72464c15.059937,5.397461 29.445618,13.092651 42.184631,23.236359c13.153442,10.489044 24.365417,23.596405 32.579529,38.59671c0,0 0,0.000031 0,0.000031c17.948792,33.285065 19.916504,73.447784 10.604065,109.857666c0,0 0,0 0,0c-7.693726,31.074707 -19.257019,61.772034 -36.584839,89.848938c-4.597412,7.440552 -9.7052,14.778748 -15.52478,21.795654c-0.083069,0.100098 -0.166443,0.200317 -0.250183,0.300659c-6.955505,-3.13269 -13.793518,-6.48761 -20.268188,-10.317749c0,0 0,0 0,0c-1.760498,-1.041321 -3.480286,-2.130005 -5.121948,-3.305847c0,0 0,0 0,0c-0.417542,-0.299072 -0.817078,-0.615295 -1.193848,-0.953735c0,0 0,0 0,0c0,0 0,0 0,0c-0.082764,-0.097229 -0.156494,-0.202637 -0.220642,-0.316833c0,0 0,0 0,0c0,0 0,0 0,0c3.245789,3.641602 6.520569,7.316833 9.824341,11.025635c0.003052,0.002991 0.006042,0.006958 0.009033,0.010254c-0.002991,-0.002991 -0.005981,-0.006958 -0.009033,-0.010254c-3.303833,-3.708862 -6.607971,-7.41687 -9.912354,-11.123901c-0.021484,0.019409 -0.034607,0.031006 -0.039185,0.034973c0.03418,-0.031006 0.084595,-0.078308 0.151733,-0.141357c0,0 0,0 0,0c0.263977,-0.247803 0.554749,-0.533569 0.875549,-0.853577c0,0 0,0 0.000061,0c0,0 0,0 0,0c1.247681,-1.244141 2.501099,-2.607605 3.785583,-4.060913c0,0 0,0 0,0c4.900146,-5.542725 9.401855,-11.656555 13.684326,-18.105591c16.159424,-24.300903 27.503418,-52.069519 35.698975,-80.904541c0,0 0,0 0,0c0,0 0,0 0,0c8.525055,-31.197388 8.492676,-65.387115 -5.756714,-92.476349c0,0 0,0 0,0c-6.299438,-12.42691 -15.307556,-23.611511 -26.045593,-32.735443c-11.351318,-9.682922 -24.856079,-17.121063 -39.247986,-22.389374c3.435242,-5.744202 7.027771,-11.41806 10.777405,-17.011444l0.000061,0.000031z" id="path3921-7" fill-rule="evenodd" fill="#3f7f00"/>
   <path d="m99.572197,688.389587c1.74958,-0.812073 3.11731,-1.544922 4.235725,-2.253845c2.530945,-1.587708 3.778687,-3.066162 5.508301,-4.490356c0.864807,-0.712097 1.853813,-1.40387 3.20282,-2.036926c1.348999,-0.633057 3.059624,-1.210022 5.360107,-1.634644c6.07074,-1.070007 12.245911,-1.619202 18.420654,-1.721497c13.044006,-0.209045 26.099243,1.645691 38.57959,5.335022c13.754089,4.066589 26.810486,10.405945 38.496948,18.62561c13.188416,9.267944 24.625977,20.967102 33.955078,34.111511c11.166199,15.718811 19.324585,33.518311 25.066284,52.034058c0,0 0,0 0,0c7.250732,23.39093 10.637756,47.937134 11.643188,72.574219c1.291687,31.896851 -1.486938,63.933777 -6.524536,95.629395l13.803467,2.016418c4.49176,-32.455811 6.628113,-65.413208 4.632019,-98.279419c-1.535583,-25.394592 -5.628906,-50.823669 -13.692505,-75.133118c0,0 0,0 0,0c-6.388733,-19.266846 -15.404724,-37.806213 -27.552795,-54.220093c-10.171082,-13.732239 -22.564453,-25.857178 -36.762207,-35.413574c0,0 0,0 0,0c-12.58374,-8.462891 -26.522278,-14.863586 -41.120728,-18.852356c-13.236084,-3.617126 -27.005066,-5.270813 -40.708008,-4.768677c-6.481201,0.233826 -12.967041,0.950562 -19.348022,2.217468c-4.576538,0.891235 -7.51313,1.063904 -10.076599,0.996094c-2.563477,-0.06781 -4.73877,-0.361389 -7.622871,0.007996c-1.560715,0.19281 -3.333916,0.586182 -5.458801,1.393433c-1.291985,0.490906 -3.156059,1.608521 -5.162407,3.167847c-2.006409,1.559326 -4.144783,3.564697 -6.017761,5.721313c-1.872986,2.156616 -3.473389,4.460022 -4.577637,6.50946c-1.104248,2.0495 -1.720154,3.835938 -1.804199,4.959167c0.968925,0.027344 2.636345,-0.461487 4.664734,-1.090942c2.028381,-0.629517 4.424255,-1.38916 6.854553,-2.075745c2.430298,-0.686646 4.894531,-1.306458 7.022461,-1.849304c2.12793,-0.542908 3.918518,-1.018616 4.983147,-1.478394l0,-0.000122z" id="path3931-9" fill-rule="evenodd" fill="#3f7f00"/>
   <path d="m378.275635,757.731018c26.976746,-3.300171 31.352966,-19.080017 34.775208,-26.270691c-14.290283,8.532104 -25.520752,-2.722229 -33.599304,10.9599" id="path3935-7" fill-rule="evenodd" fill="#3f7f00"/>
   <path d="m448.75061,592.046143c47.514252,-5.812561 55.222107,-33.605713 61.249695,-46.270691c-25.169495,15.02771 -44.949829,-4.794617 -59.178589,19.303711" id="path3938-2" fill-rule="evenodd" fill="#3f7f00"/>
   <path d="m492.516754,808.786682c1.806396,1.130432 3.135803,2.389099 4.130524,3.745239c0.99472,1.356201 1.65683,2.812317 2.092621,4.336792c0,0 0,0 0,0c0.553131,1.591187 0.714539,3.271545 0.695709,4.95929c-0.018799,1.687683 -0.22113,3.384766 -0.554932,4.993958c-0.333801,1.609253 -0.80661,3.130249 -1.439484,4.438354c-0.632904,1.308167 -1.432312,2.401672 -2.382629,3.144592c-1.142578,0.893372 -1.316864,1.984192 -1.280487,2.713135c1.139832,2.339172 3.726501,4.92981 7.923096,6.897766c2.274902,1.057007 5.31076,1.6604 9.021149,1.36438c0,0 0,0 0,0c3.642365,-0.434814 7.128571,-1.97345 9.993073,-4.390686c0.441101,-0.348022 0.867004,-0.704285 1.277039,-1.066345c6.481201,-7.013916 9.89856,-16.354004 9.280212,-26.244873c0,0 0,0 0,0c-1.595032,-13.129211 -8.484375,-23.699585 -17.147522,-30.31897c0,0 0,0 0,0c-10.307281,-8.407166 -23.558258,-12.328979 -36.770081,-10.866394c0,0 0,0 0,0c-11.184204,1.086426 -22.244751,6.17041 -30.65155,15.135742c-0.335815,0.387024 -0.664917,0.777466 -0.987366,1.171082c-4.007507,4.89978 -7.092407,10.381775 -9.192749,16.193542c-2.100342,5.811829 -3.216064,11.953491 -3.309387,18.101563c-0.260193,5.88324 0.346741,11.973938 1.959045,17.994019c1.612305,6.02002 4.230103,11.96936 7.994934,17.517944c3.97467,5.576111 8.853149,10.40271 14.399475,14.313965c5.546326,3.911255 11.760254,6.907043 18.353088,8.81488c12.471497,3.678406 26.158905,3.695007 39.03009,-0.498413c13.032837,-4.339233 24.623596,-12.515137 33.208191,-23.313843c8.342285,-10.429871 13.856995,-23.252502 15.344299,-36.896545c1.739075,-17.279053 -2.709412,-34.690735 -11.801758,-49.174316c-8.930115,-14.313354 -22.113953,-25.904297 -37.598633,-32.732483c-11.37207,-4.990112 -23.810974,-7.240723 -36.095459,-6.616699c-12.929871,0.698242 -25.336853,4.341187 -36.564392,9.790222c-14.287109,6.971863 -26.830872,16.364136 -37.85968,27.068298c-11.02887,10.704102 -20.544617,22.713867 -28.80072,34.97229c-11.953003,17.643616 -21.775574,36.163452 -29.339172,54.80957c-7.563599,18.646057 -12.866882,37.414063 -16.061157,55.654297c0,0 0,0.000061 0,0.000061c-2.311157,13.222412 -3.531494,26.102905 -4.210632,38.422791c-0.250305,4.535339 -0.422668,8.973816 -0.673767,13.306396c-0.181152,3.00293 -0.31488,5.871094 -0.873596,8.523682l-13.389587,-2.77771c0.328369,-1.286133 0.362183,-3.50415 0.589417,-6.568604c0.238647,-4.248474 0.408936,-8.685364 0.66748,-13.30365c0,0 0,-0.000122 0,-0.000122c0.736816,-13.277283 2.135437,-26.680847 4.55719,-40.075867c7.588013,-41.479248 24.764648,-80.749695 48.788574,-115.009155c0,-0.000061 0,-0.000061 0.000061,-0.000061c17.829407,-25.985291 41.467529,-50.135925 72.196655,-64.6828c12.39447,-5.788574 26.186157,-9.49707 40.679626,-10.062195c0,0 0.000061,0 0.000061,0c13.837036,-0.445557 27.665955,2.330505 40.302551,8.145874c17.034241,7.914429 31.282471,20.861694 40.859436,36.872192c9.653931,15.955994 14.218994,35.071533 11.991638,54.375305c-1.917786,14.939087 -8.099548,28.885132 -17.536194,40.26062c0,0 0,0 -0.000061,0c-9.413025,11.450745 -22.064636,20.188904 -36.601379,24.793762c-13.907257,4.273438 -28.706421,4.188354 -42.439453,-0.089417c-13.890259,-4.220642 -26.404663,-13.02063 -35.166748,-25.588989c-7.823608,-11.935242 -11.098267,-25.491333 -10.334595,-38.451904c0.298889,-13.147583 5.096558,-26.726563 14.936401,-38.006104c9.279114,-9.710022 21.077576,-15.263062 33.110046,-16.568054c0,0 0,-0.000061 0.000061,-0.000061c14.316284,-1.779053 28.749542,2.091553 40.423706,11.087463c9.68158,6.811584 17.569946,18.366394 19.985596,33.711548c0.033203,0.405518 0.060791,0.810242 0.082703,1.214172c0.198792,3.659851 -0.064819,7.039368 -0.636963,10.147705c-0.572205,3.108337 -1.453857,5.94635 -2.54126,8.539368c-2.174866,5.186096 -5.146362,9.394958 -8.502014,12.875671c-3.855652,3.843506 -8.315735,6.219666 -13.089966,7.372742c-5.131958,1.021912 -9.267822,1.001465 -12.50058,0.295898c-3.805054,-0.786438 -7.123596,-1.816589 -10.091034,-3.026062c-2.967407,-1.209473 -5.583191,-2.606506 -7.832275,-4.121948c-1.845154,-1.124817 -3.700256,-2.339783 -5.584534,-3.660339c-3.094666,-2.168884 -5.687073,-4.631531 -7.67804,-7.176575c0,0 0,0 0,0c-2.680786,-3.352051 -4.289185,-6.800293 -4.854919,-10.223145c-0.282898,-1.711365 -0.303345,-3.422485 -0.023621,-5.121216c0.279663,-1.69873 0.859863,-3.386414 1.819153,-5.022522c1.011902,-1.725891 2.286377,-3.399963 3.818909,-4.857056c1.532532,-1.457092 3.326477,-2.694641 5.344055,-3.556641c2.017517,-0.862 4.26001,-1.345337 6.617859,-1.34729c2.357788,-0.002014 4.825317,0.479553 7.247375,1.453735c1.233673,0.49823 2.463745,1.127747 3.677307,1.887146l-0.000031,0z" id="path3940-7" fill-rule="evenodd" fill="#3f7f00"/>
   <path d="m290.634399,315.331177c0,0 0.032593,0.432404 0.143188,1.223511c0.111145,0.791016 0.303894,1.944183 0.697388,3.373627c0.392883,1.429535 0.989685,3.136597 1.941223,4.980316c0.950928,1.843842 2.260864,3.821869 4.055481,5.742981c1.890259,1.794556 4.110168,3.258636 6.483704,4.275635c2.372864,1.016541 4.892761,1.585449 7.339661,1.716003c0,0 0,0 0,0c3.39856,0.179688 6.481689,-0.202179 8.995483,-0.75824c2.513672,-0.55661 4.462646,-1.274109 5.744385,-1.797211c0.422852,-0.165619 0.777527,-0.311127 1.059387,-0.428741c1.408997,-0.589294 2.794434,-1.511963 3.969788,-2.645782c1.174683,-1.134338 2.137207,-2.478271 2.7677,-3.875763c0.630371,-1.398102 0.929199,-2.846375 0.84729,-4.201599c-0.082581,-1.355743 -0.544922,-2.615662 -1.392883,-3.698853c-0.847839,-1.082581 -1.846741,-1.753906 -2.879578,-2.142365c-1.033203,-0.387817 -2.102295,-0.493652 -3.145203,-0.407654c-1.042908,0.085999 -2.060303,0.363434 -3.013184,0.775482c-0.953369,0.41272 -1.842834,0.960175 -2.637085,1.615814c-0.494873,0.408539 -0.989502,0.9711 -1.518372,1.634827c-1.032227,1.254272 -2.147522,2.92807 -3.553772,4.517639c-0.703125,0.795074 -1.477966,1.566101 -2.323975,2.248932c-0.846008,0.682831 -1.763916,1.276367 -2.720093,1.727203c-0.868347,0.41153 -1.778137,0.692047 -2.654114,0.814972c-1.536133,0.215576 -3.127869,0.171478 -4.673523,-0.139893c-1.545715,-0.311401 -3.044617,-0.889008 -4.422607,-1.69516c0,0 0,0 0,0c-2.022766,-1.26297 -3.62793,-2.851166 -4.859558,-4.407654c-1.231628,-1.556488 -2.095032,-3.081512 -2.705566,-4.365753c-0.610596,-1.284241 -0.973145,-2.331543 -1.201416,-3.038147c-0.228699,-0.705963 -0.325867,-1.07663 -0.34375,-1.044128z" id="path3943-2" fill-rule="evenodd" fill="#3f7f00"/>
   <path d="m534.012268,367.987244c0,0 -0.632446,0.130554 -1.763,0.39267c-1.130127,0.262787 -2.759644,0.657928 -4.751099,1.228424c-3.982483,1.139923 -9.424194,3.006561 -15.028503,5.953033c-2.822937,1.470917 -5.666199,3.287292 -8.308014,5.402802c-2.640747,2.115662 -5.075226,4.531982 -7.153107,7.0737c-2.520172,3.164581 -4.311401,6.410553 -5.513397,9.176117c-1.201996,2.765533 -1.835327,5.044403 -2.167358,6.359558c-0.140625,0.558228 -0.254547,1.136017 -0.338776,1.726501c-0.291748,2.239166 -0.162903,4.603027 0.364929,6.783752c0.528229,2.181427 1.450775,4.177155 2.641724,5.781586c1.191376,1.605042 2.645111,2.819916 4.216095,3.546204c1.570557,0.725555 3.254547,0.96405 4.971375,0.689972c1.828949,-0.29187 3.269012,-1.04126 4.406311,-2.000366c1.137268,-0.959106 1.974213,-2.131409 2.583221,-3.360931c0.608337,-1.229004 0.989594,-2.513916 1.197968,-3.772705c0.207764,-1.258392 0.245209,-2.492523 0.13504,-3.69458c-0.018707,-0.207672 -0.049103,-0.422821 -0.089905,-0.646332c-0.291412,-1.392609 -0.984375,-3.213074 -1.522675,-5.466553c-0.537933,-2.252869 -0.900299,-4.936432 -0.70462,-7.658203c0.210449,-2.97403 1.086884,-5.947418 2.411224,-8.188477c1.579865,-2.672852 3.545502,-5.084106 5.611481,-7.140747c0,0 0,0 0,0c2.29541,-2.295746 4.700562,-4.20285 6.959351,-5.763153c2.258728,-1.560394 4.371948,-2.775543 6.154114,-3.71106c1.781677,-0.936157 3.232849,-1.59491 4.220703,-2.033173c0.987854,-0.438202 1.512817,-0.657043 1.466919,-0.67804l0,0z" id="path3950-0" fill-rule="evenodd" fill="#3f7f00"/>
   <path d="m78.061462,917.776123c-1.156921,1.792908 -1.824585,3.498291 -2.152283,5.15094c-0.318733,1.648376 -0.296333,3.246826 -0.045349,4.814087c0,0 0,0 0,0c0.179436,1.673767 0.749756,3.262085 1.486328,4.781067c0.736511,1.518921 1.639832,2.969421 2.62323,4.285034c0.992493,1.311218 2.065178,2.48761 3.191948,3.403015c1.126846,0.915466 2.316353,1.56488 3.492195,1.832886c1.420715,0.318665 2.03894,1.233521 2.313049,1.910217c-0.036011,2.601746 -1.267944,6.044495 -4.230827,9.612976c-1.604317,1.922607 -4.098511,3.762207 -7.581673,5.073425c0,0 0,0 0,0c-3.479004,1.155579 -7.291748,1.249268 -10.908928,0.278564c-0.546211,-0.127686 -1.086922,-0.266785 -1.611885,-0.419861c-8.849117,-3.588928 -15.919189,-10.585022 -19.567989,-19.799316c0,0 0,0 0,0c-4.149239,-12.55719 -2.41333,-25.054504 2.614563,-34.735107c0,0 0,0 0,0c5.742249,-11.991455 16.071899,-21.184204 28.648312,-25.482849c0,0 0,0 0,0c10.578979,-3.775757 22.751099,-3.882629 34.17749,0.651245c0.463318,0.209717 0.927917,0.42218 1.394226,0.638245c5.7052,2.731506 10.834167,6.376099 15.208191,10.741577c4.374023,4.365479 7.992615,9.450928 10.699829,14.97168c2.739197,5.212891 4.779663,10.984253 5.885071,17.117004c1.105286,6.132751 1.266479,12.631165 0.216797,19.257019c-1.219116,6.735474 -3.580627,13.180481 -6.93811,19.081787c-3.348572,5.896973 -7.701904,11.255371 -12.853088,15.786865c-9.718689,8.635742 -22.099487,14.477905 -35.530579,16.160522c-13.637688,1.619507 -27.605412,-0.845947 -39.974789,-6.961914c-11.986153,-5.888428 -22.429441,-15.145874 -29.584902,-26.858093c-8.92896,-14.895203 -12.313109,-32.545349 -10.251829,-49.519958c1.9884,-16.75354 8.98163,-32.85199 20.092279,-45.623535c8.164919,-9.354797 18.463751,-16.686462 29.84149,-21.348511c11.997929,-4.870789 24.777843,-6.857117 37.259533,-6.705139c15.89801,0.225891 31.243401,3.388306 45.780327,8.379761c14.536865,4.991394 28.254272,11.811584 40.945984,19.388184c18.323303,10.879883 35.101013,23.454773 49.878174,37.109802c14.777222,13.65509 27.570435,28.378174 38.220398,43.525818c0,0 0,0 0,0c7.718323,10.9823 14.304321,22.118225 20.16333,32.977112c2.156494,3.997314 4.199585,7.941772 6.269714,11.755493c1.449951,2.636475 2.788391,5.176392 4.424255,7.338745l10.934204,-8.212891c-0.846008,-1.023315 -1.817078,-3.017578 -3.329407,-5.692261c-2.025574,-3.742798 -4.067871,-7.685425 -6.268677,-11.753662c0,0 0,0 0,0c-6.320679,-11.699341 -13.283508,-23.237061 -21.183716,-34.323975c0,0 0,0 0,0c-24.513611,-34.308044 -56.774414,-62.532227 -93.091492,-83.309692c-27.194214,-15.924988 -58.865295,-27.717529 -92.86438,-27.801697c-13.684685,0.039307 -27.741516,2.553223 -41.093998,8.20929c0,0 0,0 0,0c-12.713741,5.487 -24.04693,13.885376 -33.00042,24.523926c-12.05109,14.414001 -19.435431,32.194885 -21.28058,50.75647c-1.95008,18.55011 2.05926,37.788147 12.28448,54.311401c8.09571,12.701172 19.623778,22.690552 33.00788,28.966797c0,0 0,0 0,0c13.38903,6.356934 28.564137,8.875488 43.672298,6.858276c14.405823,-2.053711 27.762215,-8.429932 38.365723,-18.144897c10.772522,-9.731567 18.356323,-23.023438 20.934021,-38.124634c1.99646,-14.128418 -0.805115,-27.79126 -7.018433,-39.191956c0,0 0,0 0,0c-5.867188,-11.769043 -15.981201,-22.017944 -29.686401,-28.037109c-12.530281,-4.836792 -25.571602,-4.839355 -37.013,-0.899963c0,0 0,0 0,0c-13.715397,4.485107 -25.125488,14.1297 -31.866207,27.24054c-5.860111,10.284241 -8.081669,24.098511 -3.73127,39.009949c0.136108,0.383484 0.290409,0.758484 0.435181,1.136902c1.385929,3.392822 3.05933,6.339783 4.89838,8.910522c1.838619,2.569763 3.851929,4.759094 5.932796,6.645874c4.180061,3.764893 8.659061,6.309509 13.181152,8.029358c5.11945,1.838989 10.167057,2.091553 14.983158,1.100464c5.077209,-1.258667 8.805542,-3.035522 11.437309,-5.052429c3.103584,-2.32959 5.669502,-4.674683 7.84211,-7.033691c2.163879,-2.353882 3.940125,-4.733215 5.331299,-7.061707c1.186211,-1.801208 2.352234,-3.692261 3.491211,-5.687805c1.882019,-3.282166 3.177795,-6.612366 3.895264,-9.76239c0,0 0,0 0,0c0.998535,-4.173889 0.987427,-7.980164 0.046326,-11.32019c-0.474915,-1.66748 -1.184998,-3.224304 -2.161613,-4.642517c-0.97596,-1.417358 -2.219307,-2.697937 -3.78437,-3.769775c-1.648506,-1.132019 -3.519279,-2.10199 -5.523926,-2.769226c-2.0047,-0.667236 -4.151306,-1.025635 -6.346069,-0.945923c-2.194824,0.079712 -4.427429,0.596069 -6.563835,1.598755c-2.13636,1.002625 -4.166756,2.489197 -5.94165,4.401489c-0.901009,0.974182 -1.746346,2.066833 -2.51783,3.269592z" id="path2404-5" fill-rule="evenodd" fill="#3f7f00"/>
   <path d="m255.288147,659.342651c-0.111633,-0.112671 -0.215881,-0.22229 -0.313599,-0.329102c-0.6474,-0.704468 -1.235962,-1.055969 -1.84375,-1.234558c-0.607727,-0.178528 -1.236633,-0.196594 -1.947144,-0.219299c-1.99231,-0.000977 -4.803894,-0.74054 -7.652344,-1.027527c-1.424255,-0.143433 -2.859619,-0.178467 -4.198914,-0.021667c-1.339294,0.156738 -2.58197,0.50769 -3.598145,1.042725c-0.629028,0.331238 -1.374451,0.835266 -2.153137,1.428711c-0.778748,0.593506 -1.588928,1.277771 -2.380127,1.90979c-0.79126,0.632019 -1.565247,1.210571 -2.30896,1.530884c-0.743713,0.320374 -1.464478,0.378784 -2.119629,-0.055786c-0.578003,-0.383362 -1.293762,-1.786865 -1.799438,-3.898682c-0.505554,-2.111816 -0.766907,-4.929626 -0.49408,-7.969055c0,0 0,0 0,0c0.222839,-2.433411 0.744324,-4.967346 1.502991,-7.35321c0.758606,-2.385803 1.750549,-4.621094 2.779419,-6.540344c0.426025,-0.794617 0.951721,-1.746521 1.619324,-2.826538c1.137939,-1.8479 2.669678,-4.082214 4.811279,-6.478149c2.141663,-2.395996 4.899048,-4.957336 8.459595,-7.299011c2.620422,-1.711426 5.621704,-3.301941 9.002502,-4.600708c3.380737,-1.298828 7.142395,-2.305481 11.218506,-2.825195c7.994263,-0.822449 16.852112,-0.172546 25.849548,2.440857c4.498657,1.306702 9.024902,3.095642 13.446472,5.358215c4.42157,2.262573 8.738159,4.999695 12.794861,8.137878c6.172852,4.51532 11.996094,10.117126 17.029724,16.776245c5.401306,7.145447 9.042603,14.240723 11.569031,20.939514c1.809082,4.912537 3.04425,9.524475 3.920227,13.885925c0.876038,4.361389 1.390503,8.474182 1.667847,12.42218c0.277283,3.947937 0.315918,7.732117 0.178467,11.448364c-0.137512,3.716187 -0.451904,7.365234 -0.925232,11.041077c0,0 0,0 0,0c-0.957886,7.550903 -2.46167,15.266296 -4.814026,23.99115c-2.352295,8.724854 -5.570129,18.477966 -10.344604,29.799438c0,0 0,0 0,0.000061c-3.336731,7.937012 -7.425659,16.676636 -12.65625,26.339233c-5.230652,9.662598 -11.613342,20.251587 -19.539001,31.760742l9.425964,6.47821c12.926086,-18.696655 24.263428,-38.940186 32.729187,-60.742981c6.967834,-17.813416 11.849731,-37.070557 12.980774,-57.231873c0,0 0,0 0,0c0.997925,-16.75 -1.254944,-34.337769 -8.04364,-51.099243c-6.465088,-15.531433 -17.048401,-29.141052 -30.659912,-39.230469c-14.024475,-11.154785 -33.077881,-19.367004 -55.077759,-18.541321c-7.975403,0.566589 -15.961609,2.878784 -23.400452,7.001831c-2.27655,1.275024 -4.456909,2.72583 -6.523376,4.342896c-4.330994,3.392212 -7.677124,7.081238 -10.346802,10.776733c0,0 0,0 0,0c-2.484375,3.420898 -4.292053,6.872498 -5.64093,10.278015c-1.348877,3.405518 -2.239258,6.770203 -2.784363,10.139221c-0.600525,3.808289 -0.653137,7.532104 -0.189148,11.291504c0.463989,3.75946 1.443604,7.561096 3.135925,11.496826c1.816101,3.886108 4.190186,7.616333 7.333313,11.051758c2.539368,2.775574 5.772461,5.040161 9.253357,6.490845c3.408997,1.359497 6.848999,2.046814 10.002869,2.122559c3.153809,0.075806 6.022156,-0.449829 8.428162,-1.369385c2.406006,-0.919556 4.353333,-2.224121 5.770569,-3.708496c1.417175,-1.484375 2.307068,-3.145691 2.650879,-4.870728c0.367615,-1.844788 0.576355,-3.941406 0.534485,-6.098633c-0.041931,-2.157166 -0.335205,-4.376221 -0.885986,-6.467285c-0.550781,-2.091125 -1.361389,-4.049927 -2.327087,-5.695496c-0.482849,-0.822815 -1.002441,-1.567261 -1.533325,-2.228149c-0.530884,-0.66095 -1.072815,-1.236145 -1.594116,-1.760437l0,-0.000061z" id="path2451-0" fill-rule="evenodd" fill="#3f7f00"/>
   <path d="m390.20929,251.496201c-3.693787,-4.119354 -6.130554,-8.901611 -8.261169,-13.956116c-2.130676,-5.054535 -3.96936,-10.391724 -6.333008,-15.428528c-0.580139,-1.236206 -1.206482,-2.462067 -1.87854,-3.674683c-2.336548,-4.189667 -5.243225,-8.186188 -8.640808,-11.833588c-3.397644,-3.6474 -7.28595,-6.944641 -11.534241,-9.751221c0,0 0,0 0,0c-3.531128,-2.304169 -7.181946,-4.203476 -10.850891,-5.737503c-3.669006,-1.534012 -7.356079,-2.70369 -11.000916,-3.579971c-3.410217,-0.822906 -6.759033,-1.397827 -10.055298,-1.823959c-2.202637,0.01651 -4.462952,-0.087997 -6.667786,0.000854c-2.204773,0.088898 -4.357422,0.367676 -6.376953,1.186081c3.032288,2.012054 5.909973,4.118103 8.659058,6.352844c2.749023,2.234756 5.366455,4.594849 7.830139,7.051056c0,0 0,0 0,0c5.398682,5.398224 9.987183,11.308258 13.78241,17.054016c2.148743,3.218201 4.148682,6.427338 6.237,9.548248c2.088318,3.12088 4.266602,6.153076 6.791443,9.092682c0.203613,0.237061 0.410217,0.470612 0.619873,0.700806c3.671509,4.01889 8.279724,7.114624 13.440979,9.671631c5.161255,2.557007 10.854919,4.551453 16.378601,6.007111c1.588013,0.418488 3.065613,1.765228 3.888062,3.388947" id="path2426-1" fill-rule="evenodd" fill="#3f7f00"/>
   <path d="m47.96777,601.406433c3.321411,-0.326477 5.69416,-0.731384 7.61042,-1.225464c1.916199,-0.494141 3.373711,-1.070251 4.852539,-1.617554c1.478882,-0.547302 2.97979,-1.065979 4.985104,-1.375061c2.005371,-0.309082 4.520874,-0.415161 7.985901,-0.016174c1.949097,0.237427 3.892639,0.516174 5.828674,0.835815c20.49041,3.372803 40.141724,11.132813 58.230347,21.453369c19.435425,11.096497 37.121399,25.156006 53.135559,40.87085c0,0 0.000061,0 0.000061,0.000061c16.847839,16.541138 31.829163,34.951538 44.990173,54.560486c13.210571,19.690125 24.577393,40.5896 33.782898,62.36731c8.752075,20.720581 15.578247,42.212158 19.58667,64.153442c3.614075,19.86969 5.007019,40.08606 2.620361,59.73877c-1.084167,8.982544 -2.940674,17.819641 -5.758301,26.2677c-2.69812,8.090942 -6.259705,15.848206 -10.743591,22.949341l11.885803,7.302673c4.982361,-8.233582 8.857178,-17.052979 11.699768,-26.139099c2.963989,-9.47522 4.843323,-19.21106 5.838806,-28.97406c2.161072,-21.31842 0.352051,-42.735352 -3.824524,-63.421875c-4.598938,-22.853516 -12.046204,-45.003479 -21.43512,-66.174866c-9.866028,-22.261108 -21.908752,-43.520935 -35.79425,-63.465149c-13.82666,-19.866272 -29.520508,-38.474365 -47.093445,-55.152283c0,-0.000061 0,-0.000061 0,-0.000061c-16.695129,-15.852478 -35.163696,-29.995361 -55.416138,-41.119141c-18.857849,-10.365295 -39.390869,-18.027344 -60.782898,-21.199524c-2.025879,-0.299255 -4.058044,-0.555481 -6.094604,-0.768372c-3.552437,-0.382324 -6.237915,-0.803833 -8.47345,-1.295776c-2.235474,-0.491943 -4.019474,-1.048828 -5.754272,-1.595032c-1.734859,-0.546265 -3.42065,-1.081177 -5.458683,-1.466675c-2.038078,-0.385498 -4.431519,-0.625244 -7.55896,-0.495361c-1.618958,0.067322 -4.103939,0.546814 -6.932796,1.371582c-2.828854,0.824768 -5.996342,1.999573 -9.003422,3.367737c-3.00708,1.368164 -5.8515,2.927734 -8.115959,4.411316c-2.26441,1.483582 -3.952091,2.884033 -4.7229,3.891846c0.97967,0.434204 3.01605,0.672424 5.582581,0.8573c2.566589,0.184937 5.663389,0.324951 8.795837,0.488159c3.132442,0.163147 6.300533,0.349243 9.042351,0.491272c2.74189,0.142029 5.05994,0.233704 6.50946,0.122437l0,0.000061z" id="path2430-7" fill-rule="evenodd" fill="#3f7f00"/>
  </g>
  <g id="layer7" display="inline"/>
  <g id="layer9" display="inline"/>
  <g id="layer10" display="inline"/>
  <g id="layer5" display="inline"/>
 </g>
</svg>